inDegrees=yes
name=ik_MT_2026-07-10_09h47_01210270-000-000_orientations
DataType=double
version=3
OpenSimVersion=4.5
endheader
time	pelvis_tilt	pelvis_list	pelvis_rotation	pelvis_tx	pelvis_ty	pelvis_tz	hip_flexion_r	hip_adduction_r	hip_rotation_r	knee_angle_r	knee_angle_r_beta	ankle_angle_r	subtalar_angle_r	mtp_angle_r	hip_flexion_l	hip_adduction_l	hip_rotation_l	knee_angle_l	knee_angle_l_beta	ankle_angle_l	subtalar_angle_l	mtp_angle_l	lumbar_extension	lumbar_bending	lumbar_rotation	arm_flex_r	arm_add_r	arm_rot_r	elbow_flex_r	pro_sup_r	wrist_flex_r	wrist_dev_r	arm_flex_l	arm_add_l	arm_rot_l	elbow_flex_l	pro_sup_l	wrist_flex_l	wrist_dev_l
17.425	-2.618404888368439	-3.269138666347272	84.49131933616134	0	0.9399999999999999	0	2.532048057981849	-1.618419971332515	-9.854624056226239	-0.9998541394431442	-0.01745074677297737	-1.956975753111653	0	0	5.151270080209072	0.5129143744284763	-2.7954210303192	0.6700285931080477	0.01169420503224082	-10.17260555295165	0	0	0.811800989768272	1.324828555170705	-4.106837144927361	-1.141552349563678	-3.38063427539992	8.31357467523244	0.2197262052063369	45.00000025534021	0	0	36.20200600417564	9.425533549998773	8.282516894175368	18.42283444992839	45.00000025534021	0	0
17.45	-2.674340497404053	-3.044648884811723	85.3382385133152	0	0.9399999999999999	0	1.9409953539399	-1.571985793890997	-9.902672562047226	-1.446967697866427	-0.02525435049777169	-1.974514824962412	0	0	5.20171359939333	0.5294609487392112	-2.811260434848221	0.9607728611033332	0.01676864979005932	-10.10878718398449	0	0	0.8865618965359231	0.9136376990783172	-3.294102470617143	4.734773753074935	-4.567558916667987	9.82647626002051	0.6952457622978412	45.00000025534021	0	0	30.02770269732639	7.575405921399924	10.09013018268793	16.81010215309959	45.00000025534021	0	0
17.475	-2.672906657533451	-2.820049638361278	86.22907188756166	0	0.9399999999999999	0	1.5239971924259	-1.395637477068547	-9.884105428051479	-1.703900547210159	-0.02973867467535036	-1.903912320364254	0	0	5.146317705851659	0.4490485304291038	-2.72111494493305	1.173262885958546	0.02047730035142738	-10.10303289789444	0	0	1.113436579235046	0.4442404148227801	-2.561784478040539	9.585005348726991	-6.047949027618677	10.38595490325323	3.065597909004419	45.00000025534021	0	0	23.74182644872733	5.721268185697061	11.16548456592167	14.64423832764906	45.00000025534021	0	0
17.5	-2.604412984533705	-2.806497343003988	87.00120012213462	0	0.9399999999999999	0	1.256298808975204	-1.093988218576524	-9.686242763458111	-2.041874799677255	-0.03563743816786774	-1.849242525095097	0	0	5.28667440622603	0.3040027459036073	-2.536333202368823	1.389341982419748	0.02424859202940977	-10.02062761632198	0	0	1.38957512172107	-0.1831415693856599	-1.671000725575872	14.27978050116054	-7.570460988931821	10.31974608002342	6.13726678365007	45.00000025534021	0	0	17.47195966129302	3.581297090720852	11.73650160029427	12.47874876095792	45.00000025534021	0	0
17.525	-2.477971554460916	-2.808534138504309	87.62306458654119	0	0.9399999999999999	0	0.9731929270686414	-0.7322426911175308	-9.311379894993589	-2.417309426146858	-0.04219000852575737	-1.807000488083306	0	0	5.434135153707095	0.1057277020468582	-2.252137392026128	1.629708525141759	0.02844377961154448	-9.915823183611138	0	0	1.540974509475515	-0.8355100164046874	-0.6637496798923187	19.16659619512712	-9.303337272555925	10.40282694092134	8.958344832043288	45.00000025534021	0	0	11.34565414570346	1.293195387268829	11.48123067268408	10.38235761977908	45.00000025534021	0	0
17.55	-2.316247721301917	-2.76695194966153	88.02099993166144	0	0.9399999999999999	0	0.5915094809159195	-0.3458763154164922	-8.741065928494901	-2.934298037379919	-0.05121316198708724	-1.847698448044474	0	0	5.563134484448556	-0.1207303665857302	-1.97940627983233	1.887648219288718	0.03294567654599606	-9.793456092976145	0	0	0.970673360184811	-1.343770596775873	0.408403740306355	24.86743441226768	-11.36786637964698	11.16580838180368	11.26228181950578	45.00000025534021	0	0	6.073454614755406	-0.7052092825161234	9.623586004041989	8.147529319572772	45.00000025534021	0	0
17.575	-2.121104151563573	-2.583476365152852	88.43348552375944	0	0.9399999999999999	0	0.1371228665009078	0.06096383926046423	-8.309485080858702	-3.369798124845333	-0.05881407240608198	-1.828865405404462	0	0	5.43580220056308	-0.3830239281811844	-1.51176260948892	2.047076417608192	0.03572822352719337	-9.690595840735616	0	0	0.2692827869725699	-1.835764468892899	1.264888172143098	30.44612551641242	-13.45539245306195	12.28496555464561	13.40715951895385	45.00000025534021	0	0	1.174499586871475	-2.477126386652665	6.063670600291992	5.880703303949176	45.00000025534021	0	0
17.6	-1.886496521041211	-2.379356091598476	88.72097660349844	0	0.9399999999999999	0	-0.3176439622282837	0.4928965939858137	-7.792001756791194	-3.753103666449097	-0.06550401614820778	-1.864347654448714	0	0	5.254279995641203	-0.6873121843910482	-1.150075222598531	2.15516539819177	0.03761473212350103	-9.60656984601655	0	0	-0.3016323560018354	-2.262635067054393	1.976053935154634	35.7785266584123	-15.28705192926082	13.59141221020059	15.24341153093336	45.00000025534021	0	0	-3.480252250223925	-4.206552940333134	0.9212981336471241	3.927817353326036	45.00000025534021	0	0
17.625	-1.681225299434769	-2.46627804091221	88.83275619514144	0	0.9399999999999999	0	-0.3848553005017605	0.8689058673508773	-7.384948848715559	-3.987872497813245	-0.06960150523657149	-1.77036552027853	0	0	5.293130289011964	-0.9912866868277079	-0.9137387464441952	2.192003602982119	0.03825768008761658	-9.493580132787535	0	0	-0.1938278609604046	-2.782304904930121	2.850976129695733	40.34107966431788	-17.00555723136591	14.81188473596179	17.27504776017566	45.00000025534021	0	0	-7.992524296769865	-6.085089071842107	-4.847917594238682	2.220878148340949	45.00000025534021	0	0
17.65	-1.526967717284093	-2.535764197511605	88.87305526548532	0	0.9399999999999999	0	-0.5110971916505143	1.189713979287197	-7.120955860618467	-4.26026669179216	-0.07435568078481967	-1.734069502278577	0	0	5.340814432887634	-1.233029143355143	-0.7611235821763519	2.271762593984371	0.03964973708867441	-9.356997747968617	0	0	-0.1926740410067214	-3.266335305698118	3.565300301945836	44.8494888910822	-18.89060825930191	16.40954525022885	19.12704777350923	45.00000025534021	0	0	-12.09619550877602	-7.840723659960136	-11.22310447696356	0.9959250564631855	45.00000025534021	0	0
17.675	-1.426082552952007	-2.678668472840947	88.97163859787743	0	0.9399999999999999	0	-0.6148185735795496	1.406978639803959	-7.045396255270708	-4.56163268826923	-0.07961550967689818	-1.741991472306395	0	0	5.499120963190126	-1.382358101681243	-0.5748587915470204	2.392321699946847	0.04175389043098033	-9.214725206160365	0	0	-0.4133350877334981	-3.643700651176855	4.119885856416798	49.56905424430757	-20.91007678260575	18.69368918249949	20.69524414748428	45.00000025534021	0	0	-15.7365009528255	-9.348753510031127	-17.62829994596935	0.4556919859376852	45.00000025534021	0	0
17.7	-1.333607447648353	-2.780048958196852	89.05428173387537	0	0.9399999999999999	0	-0.7232381356653356	1.601534718043845	-6.970405806352605	-4.829503943625516	-0.08429074505431587	-1.686698762971445	0	0	5.580375139218478	-1.556120659977416	-0.4666630641336545	2.530870958646982	0.0441720311714951	-9.070288831958187	0	0	-0.6693155854095918	-3.991208428075337	4.729165576064045	53.92737237503904	-22.7372121460888	21.20790232419014	21.97609769741242	45.00000025534021	0	0	-19.14500336810817	-10.6690664133374	-23.62529323653641	0.2926819676145903	45.00000025534021	0	0
17.725	-1.185986048643567	-2.749094911674478	89.19938710847583	0	0.9399999999999999	0	-0.9642944462114947	1.823961188026629	-6.985312936529438	-5.074118156123263	-0.08856006845957462	-1.641505685225356	0	0	5.545693410500268	-1.747906813374798	-0.320808491588223	2.653505495965712	0.04631240762436679	-8.913438517847602	0	0	-0.9205130194607998	-4.153585432797215	5.236607113419174	57.75502820764265	-24.38461529222992	23.69859523331872	23.02671381211724	45.00000025534021	0	0	-22.36073006329817	-11.65559609926035	-28.6763238814426	0.2235597800193803	45.00000025534021	0	0
17.75	-1.001985740306366	-2.734933996467349	89.30718132777493	0	0.9399999999999999	0	-1.140210668200362	2.071161057666066	-6.94029786465141	-5.26301355814296	-0.09185691516669668	-1.584504885677297	0	0	5.540877677363154	-1.995573923040024	-0.2299435191939723	2.746262347040523	0.04793132007940428	-8.773724605342846	0	0	-1.157709129315909	-4.150412026241282	5.588850299123397	61.45153825164136	-25.68663378861092	26.26174146405618	23.68662592456171	45.00000025534021	0	0	-25.21222260030769	-12.31166205584586	-32.64791918939004	0.194122909212772	45.00000025534021	0	0
17.775	-0.834977002339354	-2.684260632384903	89.34666287331832	0	0.9399999999999999	0	-1.28852995793806	2.25715295002435	-6.762616435641041	-5.375934056378547	-0.09382774965390012	-1.538038090521971	0	0	5.462940454104355	-2.193925862252343	-0.2247570068879649	2.819076843030709	0.04920217277761323	-8.647026801379699	0	0	-1.201564494206049	-4.140135630212207	5.840591451381931	64.55543077866825	-26.43009121537556	28.52278259084502	23.87222099065872	45.00000025534021	0	0	-27.91698497731101	-12.7322040690662	-35.34924049397673	0.1720628538597964	45.00000025534021	0	0
17.8	-0.7082418467286306	-2.615578427825757	89.2881056805405	0	0.9399999999999999	0	-1.433415331315213	2.38059015679376	-6.505162325421942	-5.467163069634354	-0.09541999630855949	-1.455028082814903	0	0	5.362329142305169	-2.339632964569442	-0.2931427263138037	2.892068023503146	0.05047610920177465	-8.528088026229563	0	0	-1.333596052806018	-4.020934040577803	5.891599180778013	67.3527320068138	-26.64949155437029	30.39549615311172	23.6364065232859	45.00000025534021	0	0	-30.10864074258214	-12.70703990341506	-36.88613363323274	0.1579910067752689	45.00000025534021	0	0
17.825	-0.6336034669794905	-2.589311194293751	89.09993392236498	0	0.9399999999999999	0	-1.528356419063478	2.442450509933599	-6.15744189115459	-5.541566668667594	-0.0967185840870232	-1.39907437567495	0	0	5.29538346689479	-2.441017328334091	-0.4520674653544361	2.956675042758681	0.0516037144076831	-8.414513576343005	0	0	-1.482898411635426	-3.882496803530882	5.952247065831221	69.5151232403409	-26.65429413106999	31.62134803168974	23.39842699525022	45.00000025534021	0	0	-31.63017286530086	-12.44102246007224	-37.50199025172379	0.1439808613547315	45.00000025534021	0	0
17.85	-0.5721667293724166	-2.556813686748004	88.7006569086476	0	0.9399999999999999	0	-1.61421977332414	2.469206913264375	-5.739948585372133	-5.616418783999613	-0.09802499995164947	-1.376023014730229	0	0	5.212096683286589	-2.547699858479109	-0.7999877517756121	2.998944442561155	0.05234145460707812	-8.296812909716584	0	0	-1.566352643279476	-3.638024262434917	6.007701249195628	70.96196125442862	-26.18948654301018	32.24726272313887	23.10887942857231	45.00000025534021	0	0	-32.52886098706117	-11.8713805347692	-37.51295269039238	0.1305536529330087	45.00000025534021	0	0
17.875	-0.5226592407148453	-2.51020313921115	88.17515607897604	0	0.9399999999999999	0	-1.645139102527303	2.472837530320838	-5.387899245384546	-5.630948179375798	-0.09827858573928792	-1.401923977599929	0	0	5.048794762384073	-2.65707329275259	-1.292346927722198	3.005167558378302	0.05245006846782027	-8.20499172431072	0	0	-1.595442567081882	-3.368733233162349	5.975353331318609	71.45489450922996	-25.37297536732815	32.02452167916906	23.01206428534627	45.00000025534021	0	0	-32.78462359179219	-11.12549811906334	-36.92708562917161	0.1200222643454012	45.00000025534021	0	0
